<svg width="32" height="24" fill="none" xmlns="http://www.w3.org/2000/svg"><path fill-rule="evenodd" clip-rule="evenodd" d="M20.574 9.922L16.91 1.778l-.002-.004a.636.636 0 01.845-.822.64.64 0 01.34.347l3.803 8.623H30.5a.6.6 0 110 1.198h-.603l-4.845 11.607a.6.6 0 01-.552.372H7.505a.6.6 0 01-.596-.372L2.103 11.12H1.5a.6.6 0 110-1.198h8.605L13.908 1.3a.638.638 0 011.185.475l-.002.004-3.666 8.144h9.15zm3.53 11.978L28.6 11.12H3.4L7.897 21.9h16.206z" fill="#fff" stroke="#fff" stroke-width=".2"/></svg>