<svg width="22" height="25" fill="none" xmlns="http://www.w3.org/2000/svg"><path d="M22 13.259l-.002-.032c0-.007 0-.013-.002-.02 0-.01-.002-.018-.004-.027a.478.478 0 00-.036-.123l-.002-.005-2.672-5.91H20c.276 0 .5-.228.5-.51a.505.505 0 00-.5-.51h-8.5V.51A.505.505 0 0011 0c-.276 0-.5.228-.5.51v5.612H2c-.276 0-.5.229-.5.51 0 .282.224.51.5.51h.719l-2.673 5.91-.002.005a.483.483 0 00-.012.031l-.007.018a.495.495 0 00-.008.027l-.005.023-.004.023a.564.564 0 00-.005.028l-.001.02a.521.521 0 00-.002.032v.006c0 1.97 1.57 3.572 3.5 3.572S7 15.235 7 13.265v-.006l-.002-.033-.001-.019a.47.47 0 00-.005-.028l-.004-.023-.006-.023a.456.456 0 00-.007-.027l-.007-.018a.483.483 0 00-.012-.03l-.002-.006-2.673-5.91H10.5V23.98h-6c-.276 0-.5.228-.5.51 0 .282.224.51.5.51h13c.276 0 .5-.229.5-.51a.505.505 0 00-.5-.51h-6V7.143h6.218l-2.672 5.909-.002.005a.482.482 0 00-.013.032l-.006.016a.457.457 0 00-.008.03l-.005.02-.004.025c-.002.009-.004.018-.004.027l-.002.02a.49.49 0 00-.002.032v.006c0 1.97 1.57 3.572 3.5 3.572s3.5-1.602 3.5-3.572v-.006zM3.5 7.85l2.219 4.905H1.28L3.5 7.85zm0 7.966c-1.207 0-2.217-.878-2.45-2.04h4.9c-.233 1.162-1.243 2.04-2.45 2.04zm17.218-3.06h-4.437L18.5 7.85l2.218 4.905zm-2.218 3.06c-1.207 0-2.218-.878-2.45-2.04h4.9c-.232 1.162-1.243 2.04-2.45 2.04z" fill="#fff"/></svg>