<svg width="20" height="30" viewBox="0 0 20 30" fill="none" xmlns="http://www.w3.org/2000/svg">
<path d="M0.431441 10.9044C0.923396 11.2508 1.63897 11.1774 2.02859 10.7386L4.78248 7.63984L8.86669 3.56921V28.9891C8.86669 29.5478 9.37608 30 10.0037 30C10.6314 30 11.1407 29.5478 11.1407 28.9891V3.82396L18.0031 10.8862C18.4124 11.3081 19.131 11.356 19.6063 10.9907C20.0816 10.6254 20.1339 9.98719 19.7231 9.56463L10.7708 0.350452C10.5571 0.130072 10.247 0.00269578 9.91958 0C9.91654 0 9.91351 0 9.91048 0C9.58605 0 9.27754 0.122658 9.06226 0.337646L3.04282 6.3398L0.245727 9.48443C-0.144654 9.9225 -0.0605144 10.558 0.431441 10.9044Z" fill="#F94877"/>
</svg>
