<svg width="32" height="24" viewBox="0 0 32 24" fill="none" xmlns="http://www.w3.org/2000/svg">
<path fill-rule="evenodd" clip-rule="evenodd" d="M20.5742 9.92216L16.9088 1.77823L16.9071 1.77441C16.8759 1.69666 16.8605 1.61351 16.8615 1.52977C16.8626 1.44602 16.8801 1.36331 16.9131 1.28634C16.9462 1.20937 16.9941 1.13967 17.0541 1.08121C17.1141 1.02274 17.1851 0.976658 17.2629 0.945578C17.3408 0.914498 17.424 0.89903 17.5078 0.90005C17.5916 0.90107 17.6744 0.918559 17.7515 0.951525C17.8285 0.98449 17.8983 1.03229 17.9569 1.0922C18.0151 1.15168 18.061 1.22195 18.0922 1.29904L21.8952 9.92216H30.5C30.6591 9.92216 30.8117 9.98524 30.9242 10.0976C31.0367 10.2099 31.1 10.3623 31.1 10.5213C31.1 10.6802 31.0367 10.8326 30.9242 10.9449C30.8117 11.0573 30.6591 11.1204 30.5 11.1204H29.8966L25.0525 22.7273C25.0074 22.8367 24.931 22.9303 24.8327 22.9964C24.7345 23.0625 24.6189 23.098 24.5005 23.0986H7.50351C7.37836 23.1071 7.25364 23.0762 7.14695 23.0101C7.03928 22.9435 6.95548 22.8445 6.90757 22.7274L2.10315 11.1204H1.49999C1.34092 11.1204 1.18833 11.0573 1.07579 10.9449C0.963252 10.8326 0.899994 10.6802 0.899994 10.5213C0.899994 10.3623 0.963252 10.2099 1.07579 10.0976C1.18833 9.98524 1.34092 9.92216 1.49999 9.92216H10.1048L13.9078 1.29905C13.971 1.1428 14.0935 1.01786 14.2485 0.951525C14.4042 0.884951 14.5799 0.882813 14.7371 0.945578C14.8943 1.00834 15.0201 1.1309 15.0869 1.28634C15.1536 1.44179 15.1558 1.61735 15.0928 1.77438L15.0912 1.77823L11.4247 9.92216H20.5742ZM24.1034 21.9004L28.5999 11.1204H3.40005L7.89663 21.9004H24.1034Z" fill="white" stroke="white" stroke-width="0.2"/>
</svg>
