<svg width="22" height="25" viewBox="0 0 22 25" fill="none" xmlns="http://www.w3.org/2000/svg">
<path d="M21.9997 13.2588C21.9995 13.2482 21.9989 13.2375 21.9981 13.2268C21.9976 13.2203 21.9972 13.2136 21.9965 13.2071C21.9954 13.1979 21.9939 13.1887 21.9924 13.1795C21.9911 13.1715 21.9898 13.1635 21.9881 13.1556C21.9865 13.1484 21.9846 13.1413 21.9827 13.1342C21.9802 13.1244 21.9776 13.1147 21.9745 13.1052C21.9727 13.0996 21.9706 13.0941 21.9685 13.0886C21.9647 13.0779 21.9607 13.0673 21.9561 13.057C21.9553 13.0552 21.9548 13.0533 21.954 13.0515L19.2815 7.14286H20C20.2761 7.14286 20.5 6.91444 20.5 6.63265C20.5 6.35087 20.2761 6.12245 20 6.12245H11.5V0.510204C11.5 0.228418 11.2761 0 11 0C10.7239 0 10.5 0.228418 10.5 0.510204V6.12245H2C1.72385 6.12245 1.5 6.35087 1.5 6.63265C1.5 6.91444 1.72385 7.14286 2 7.14286H2.71855L0.0459999 13.0515C0.0451499 13.0534 0.04455 13.0554 0.04375 13.0573C0.03935 13.0673 0.0354499 13.0776 0.0316999 13.088C0.0295499 13.0938 0.0273 13.0997 0.0254 13.1056C0.02245 13.1147 0.0199499 13.124 0.0174999 13.1334C0.0154999 13.1409 0.01345 13.1484 0.01185 13.1559C0.01025 13.1635 0.00904994 13.1711 0.00774994 13.1788C0.00614994 13.1883 0.00455001 13.1979 0.00345001 13.2074C0.00275001 13.2136 0.00240007 13.2199 0.00195007 13.2262C0.00110007 13.2372 0.000450026 13.2482 0.000300026 13.2591C0.000300026 13.2612 0 13.2633 0 13.2654C0 15.2346 1.5701 16.8368 3.5 16.8368C5.4299 16.8368 7 15.2346 7 13.2654C7 13.2633 6.9997 13.2612 6.9997 13.2591C6.9996 13.2482 6.9989 13.2372 6.99805 13.2262C6.9976 13.2199 6.99725 13.2136 6.99655 13.2074C6.9955 13.1979 6.9939 13.1883 6.99225 13.1788C6.99095 13.1711 6.98975 13.1634 6.98815 13.1559C6.9865 13.1484 6.98445 13.1409 6.9825 13.1334C6.98005 13.124 6.9776 13.1147 6.9746 13.1056C6.9727 13.0996 6.97045 13.0938 6.9683 13.088C6.96455 13.0776 6.96065 13.0673 6.95625 13.0573C6.9554 13.0554 6.95485 13.0534 6.954 13.0515L4.28145 7.14286H10.5V23.9796H4.5C4.22385 23.9796 4 24.2081 4 24.4898C4 24.7715 4.22385 25 4.5 25H17.5C17.7761 25 18 24.7715 18 24.4898C18 24.2081 17.7761 23.9796 17.5 23.9796H11.5V7.14286H17.7185L15.046 13.0515C15.0452 13.0534 15.0447 13.0552 15.0439 13.057C15.0393 13.0673 15.0353 13.0779 15.0314 13.0886C15.0294 13.0942 15.0273 13.0997 15.0255 13.1053C15.0224 13.1147 15.0198 13.1245 15.0173 13.1342C15.0154 13.1414 15.0134 13.1485 15.0119 13.1556C15.0101 13.1635 15.0089 13.1715 15.0076 13.1796C15.006 13.1888 15.0044 13.198 15.0035 13.2071C15.0027 13.2137 15.0023 13.2203 15.0018 13.2269C15.001 13.2376 15.0004 13.2482 15.0003 13.2588C15.0003 13.261 15 13.2631 15 13.2653C15 15.2346 16.5701 16.8367 18.5 16.8367C20.4299 16.8367 22 15.2346 22 13.2653C22 13.2631 21.9997 13.261 21.9997 13.2588ZM3.5 7.85015L5.71855 12.7551H1.28145L3.5 7.85015ZM3.5 15.8163C2.2927 15.8163 1.28255 14.9385 1.0502 13.7755H5.94975C5.71745 14.9385 4.7073 15.8163 3.5 15.8163ZM20.7185 12.7551H16.2814L18.5 7.85015L20.7185 12.7551ZM18.5 15.8163C17.2927 15.8163 16.2825 14.9385 16.0503 13.7755H20.9498C20.7175 14.9385 19.7073 15.8163 18.5 15.8163Z" fill="white"/>
</svg>
